<?xml version="1.0" standalone="no"?><!DOCTYPE svg PUBLIC "-//W3C//DTD SVG 1.1//EN" "http://www.w3.org/Graphics/SVG/1.1/DTD/svg11.dtd"><svg t="1490778558634" class="icon" style="" viewBox="0 0 1024 1024" version="1.1" xmlns="http://www.w3.org/2000/svg" p-id="16262" xmlns:xlink="http://www.w3.org/1999/xlink" width="64" height="64"><defs><style type="text/css"></style></defs><path d="M880 688c-32 0-57.6 9.6-83.2 25.6l-99.2-96c28.8-35.2 48-83.2 48-134.4 0-57.6-22.4-108.8-60.8-147.2l80-80c16 9.6 32 12.8 51.2 12.8C876.8 272 928 220.8 928 160c0-60.8-51.2-112-112-112C755.2 48 704 99.2 704 160c0 19.2 6.4 38.4 12.8 54.4l-86.4 86.4c-28.8-16-64-25.6-102.4-25.6-51.2 0-99.2 19.2-137.6 51.2L307.2 240C313.6 224 320 208 320 192c0-60.8-51.2-112-112-112C147.2 80 96 131.2 96 192c0 60.8 51.2 112 112 112 22.4 0 41.6-6.4 60.8-16l86.4 83.2c-22.4 32-32 70.4-32 112 0 35.2 9.6 70.4 25.6 99.2l-70.4 70.4c-28.8-19.2-60.8-32-99.2-32C80 624 0 704 0 800s80 176 176 176S352 896 352 800c0-38.4-12.8-73.6-32-99.2l64-64c38.4 38.4 89.6 60.8 147.2 60.8 44.8 0 86.4-12.8 118.4-35.2l105.6 102.4C742.4 780.8 736 806.4 736 832c0 80 64 144 144 144s144-64 144-144S960 688 880 688z" p-id="16263" fill="#108ee9"></path></svg>